<svg width="160" height="28" viewBox="0 0 160 28" fill="none" xmlns="http://www.w3.org/2000/svg">
<path d="M14.884 5.226C12.1227 5.226 10.1213 5.99867 8.88 7.544C7.664 9.064 7.056 11.154 7.056 13.814C7.056 15.106 7.208 16.284 7.512 17.348C7.816 18.3867 8.272 19.286 8.88 20.046C9.488 20.806 10.248 21.4013 11.16 21.832C12.072 22.2373 13.136 22.44 14.352 22.44C15.0107 22.44 15.568 22.4273 16.024 22.402C16.5053 22.3767 16.9233 22.326 17.278 22.25V13.092H23.206V26.126C22.4967 26.4047 21.3567 26.696 19.786 27C18.2153 27.3293 16.2773 27.494 13.972 27.494C11.996 27.494 10.1973 27.19 8.576 26.582C6.98 25.974 5.612 25.0873 4.472 23.922C3.332 22.7567 2.44533 21.3253 1.812 19.628C1.204 17.9307 0.9 15.9927 0.9 13.814C0.9 11.61 1.242 9.65933 1.926 7.962C2.61 6.26467 3.54733 4.83333 4.738 3.668C5.92867 2.47733 7.322 1.578 8.918 0.969998C10.5393 0.361998 12.262 0.0579981 14.086 0.0579981C15.3273 0.0579981 16.442 0.146665 17.43 0.323999C18.4433 0.475999 19.3047 0.665999 20.014 0.893999C20.7487 1.09667 21.344 1.312 21.8 1.54C22.2813 1.768 22.6233 1.94533 22.826 2.072L21.116 6.822C20.3053 6.39133 19.368 6.024 18.304 5.72C17.2653 5.39067 16.1253 5.226 14.884 5.226ZM33.6996 13.814C33.6996 15.106 33.8516 16.2713 34.1556 17.31C34.485 18.3487 34.941 19.248 35.5236 20.008C36.1316 20.7427 36.8663 21.3127 37.7276 21.718C38.589 22.1233 39.577 22.326 40.6916 22.326C41.781 22.326 42.7563 22.1233 43.6176 21.718C44.5043 21.3127 45.239 20.7427 45.8216 20.008C46.4296 19.248 46.8856 18.3487 47.1896 17.31C47.519 16.2713 47.6836 15.106 47.6836 13.814C47.6836 12.522 47.519 11.3567 47.1896 10.318C46.8856 9.254 46.4296 8.35467 45.8216 7.62C45.239 6.86 44.5043 6.27733 43.6176 5.872C42.7563 5.46667 41.781 5.264 40.6916 5.264C39.577 5.264 38.589 5.47933 37.7276 5.91C36.8663 6.31533 36.1316 6.898 35.5236 7.658C34.941 8.39267 34.485 9.292 34.1556 10.356C33.8516 11.3947 33.6996 12.5473 33.6996 13.814ZM53.8016 13.814C53.8016 16.0687 53.4596 18.0573 52.7756 19.78C52.117 21.4773 51.205 22.9087 50.0396 24.074C48.8743 25.214 47.481 26.0753 45.8596 26.658C44.2636 27.2407 42.541 27.532 40.6916 27.532C38.893 27.532 37.1956 27.2407 35.5996 26.658C34.0036 26.0753 32.6103 25.214 31.4196 24.074C30.229 22.9087 29.2916 21.4773 28.6076 19.78C27.9236 18.0573 27.5816 16.0687 27.5816 13.814C27.5816 11.5593 27.9363 9.58333 28.6456 7.886C29.355 6.16333 30.305 4.71933 31.4956 3.554C32.7116 2.38866 34.105 1.51466 35.6756 0.931998C37.2716 0.349331 38.9436 0.0579981 40.6916 0.0579981C42.4903 0.0579981 44.1876 0.349331 45.7836 0.931998C47.3796 1.51466 48.773 2.38866 49.9636 3.554C51.1543 4.71933 52.0916 6.16333 52.7756 7.886C53.4596 9.58333 53.8016 11.5593 53.8016 13.814ZM71.5871 5.226C68.8258 5.226 66.8245 5.99867 65.5831 7.544C64.3671 9.064 63.7591 11.154 63.7591 13.814C63.7591 15.106 63.9111 16.284 64.2151 17.348C64.5191 18.3867 64.9751 19.286 65.5831 20.046C66.1911 20.806 66.9511 21.4013 67.8631 21.832C68.7751 22.2373 69.8391 22.44 71.0551 22.44C71.7138 22.44 72.2711 22.4273 72.7271 22.402C73.2085 22.3767 73.6265 22.326 73.9811 22.25V13.092H79.9091V26.126C79.1998 26.4047 78.0598 26.696 76.4891 27C74.9185 27.3293 72.9805 27.494 70.6751 27.494C68.6991 27.494 66.9005 27.19 65.2791 26.582C63.6831 25.974 62.3151 25.0873 61.1751 23.922C60.0351 22.7567 59.1485 21.3253 58.5151 19.628C57.9071 17.9307 57.6031 15.9927 57.6031 13.814C57.6031 11.61 57.9451 9.65933 58.6291 7.962C59.3131 6.26467 60.2505 4.83333 61.4411 3.668C62.6318 2.47733 64.0251 1.578 65.6211 0.969998C67.2425 0.361998 68.9651 0.0579981 70.7891 0.0579981C72.0305 0.0579981 73.1451 0.146665 74.1331 0.323999C75.1465 0.475999 76.0078 0.665999 76.7171 0.893999C77.4518 1.09667 78.0471 1.312 78.5031 1.54C78.9845 1.768 79.3265 1.94533 79.5291 2.072L77.8191 6.822C77.0085 6.39133 76.0711 6.024 75.0071 5.72C73.9685 5.39067 72.8285 5.226 71.5871 5.226ZM90.4028 13.814C90.4028 15.106 90.5548 16.2713 90.8588 17.31C91.1881 18.3487 91.6441 19.248 92.2268 20.008C92.8348 20.7427 93.5694 21.3127 94.4308 21.718C95.2921 22.1233 96.2801 22.326 97.3948 22.326C98.4841 22.326 99.4594 22.1233 100.321 21.718C101.207 21.3127 101.942 20.7427 102.525 20.008C103.133 19.248 103.589 18.3487 103.893 17.31C104.222 16.2713 104.387 15.106 104.387 13.814C104.387 12.522 104.222 11.3567 103.893 10.318C103.589 9.254 103.133 8.35467 102.525 7.62C101.942 6.86 101.207 6.27733 100.321 5.872C99.4594 5.46667 98.4841 5.264 97.3948 5.264C96.2801 5.264 95.2921 5.47933 94.4308 5.91C93.5694 6.31533 92.8348 6.898 92.2268 7.658C91.6441 8.39267 91.1881 9.292 90.8588 10.356C90.5548 11.3947 90.4028 12.5473 90.4028 13.814ZM110.505 13.814C110.505 16.0687 110.163 18.0573 109.479 19.78C108.82 21.4773 107.908 22.9087 106.743 24.074C105.577 25.214 104.184 26.0753 102.563 26.658C100.967 27.2407 99.2441 27.532 97.3948 27.532C95.5961 27.532 93.8988 27.2407 92.3028 26.658C90.7068 26.0753 89.3134 25.214 88.1228 24.074C86.9321 22.9087 85.9948 21.4773 85.3108 19.78C84.6268 18.0573 84.2848 16.0687 84.2848 13.814C84.2848 11.5593 84.6394 9.58333 85.3488 7.886C86.0581 6.16333 87.0081 4.71933 88.1988 3.554C89.4148 2.38866 90.8081 1.51466 92.3788 0.931998C93.9748 0.349331 95.6468 0.0579981 97.3948 0.0579981C99.1934 0.0579981 100.891 0.349331 102.487 0.931998C104.083 1.51466 105.476 2.38866 106.667 3.554C107.857 4.71933 108.795 6.16333 109.479 7.886C110.163 9.58333 110.505 11.5593 110.505 13.814ZM123.391 11.496C124.455 9.69733 125.469 7.89867 126.431 6.1C127.394 4.30133 128.281 2.49 129.091 0.665999H135.627C134.183 3.50333 132.689 6.252 131.143 8.912C129.598 11.572 127.964 14.2447 126.241 16.93V27H120.313V17.006C118.591 14.3207 116.944 11.6353 115.373 8.95C113.828 6.26467 112.333 3.50333 110.889 0.665999H117.767C118.578 2.49 119.452 4.30133 120.389 6.1C121.327 7.89867 122.327 9.69733 123.391 11.496ZM152.709 27C152.43 26.088 152.114 25.1507 151.759 24.188C151.43 23.2253 151.1 22.2627 150.771 21.3H140.511C140.182 22.2627 139.84 23.2253 139.485 24.188C139.156 25.1507 138.852 26.088 138.573 27H132.417C133.405 24.1627 134.342 21.5407 135.229 19.134C136.116 16.7273 136.977 14.46 137.813 12.332C138.674 10.204 139.51 8.19 140.321 6.29C141.157 4.36467 142.018 2.49 142.905 0.665999H148.567C149.428 2.49 150.277 4.36467 151.113 6.29C151.949 8.19 152.785 10.204 153.621 12.332C154.482 14.46 155.356 16.7273 156.243 19.134C157.13 21.5407 158.067 24.1627 159.055 27H152.709ZM145.603 6.632C145.476 7.012 145.286 7.53133 145.033 8.19C144.78 8.84867 144.488 9.60867 144.159 10.47C143.83 11.3313 143.462 12.2813 143.057 13.32C142.677 14.3587 142.284 15.448 141.879 16.588H149.365C148.96 15.448 148.567 14.3587 148.187 13.32C147.807 12.2813 147.44 11.3313 147.085 10.47C146.756 9.60867 146.464 8.84867 146.211 8.19C145.958 7.53133 145.755 7.012 145.603 6.632Z" fill="#F5F5F5"/>
</svg>
